<mxfile host="Electron" modified="2023-09-19T07:07:00.336Z" agent="Mozilla/5.0 (Windows NT 10.0; Win64; x64) AppleWebKit/537.36 (KHTML, like Gecko) draw.io/21.7.5 Chrome/114.0.5735.289 Electron/25.8.1 Safari/537.36" etag="kHnWoRsGMH3gLXD04EbY" version="21.7.5" type="device">
  <diagram name="Page-1" id="8rDM_kgdoy_JN7Ky6HTe">
    <mxGraphModel dx="780" dy="513" grid="1" gridSize="10" guides="1" tooltips="1" connect="1" arrows="1" fold="1" page="1" pageScale="1" pageWidth="1654" pageHeight="1169" math="0" shadow="0">
      <root>
        <mxCell id="0" />
        <mxCell id="1" parent="0" />
        <mxCell id="hNB02oKi-MRNqb1KIhmf-5" value="" style="group" vertex="1" connectable="0" parent="1">
          <mxGeometry x="160" y="40" width="180" height="70" as="geometry" />
        </mxCell>
        <mxCell id="lsEL3dnpaxWrX8sRYRty-1" value="Main menu" style="rounded=0;whiteSpace=wrap;html=1;" parent="hNB02oKi-MRNqb1KIhmf-5" vertex="1">
          <mxGeometry width="180" height="40" as="geometry" />
        </mxCell>
        <mxCell id="hNB02oKi-MRNqb1KIhmf-1" value="PREV" style="rounded=0;whiteSpace=wrap;html=1;" vertex="1" parent="hNB02oKi-MRNqb1KIhmf-5">
          <mxGeometry y="40" width="60" height="30" as="geometry" />
        </mxCell>
        <mxCell id="hNB02oKi-MRNqb1KIhmf-2" value="MENU" style="rounded=0;whiteSpace=wrap;html=1;" vertex="1" parent="hNB02oKi-MRNqb1KIhmf-5">
          <mxGeometry x="60" y="40" width="60" height="30" as="geometry" />
        </mxCell>
        <mxCell id="hNB02oKi-MRNqb1KIhmf-3" value="NEXT" style="rounded=0;whiteSpace=wrap;html=1;" vertex="1" parent="hNB02oKi-MRNqb1KIhmf-5">
          <mxGeometry x="120" y="40" width="60" height="30" as="geometry" />
        </mxCell>
        <mxCell id="hNB02oKi-MRNqb1KIhmf-6" value="" style="group" vertex="1" connectable="0" parent="1">
          <mxGeometry x="160" y="160" width="180" height="70" as="geometry" />
        </mxCell>
        <mxCell id="hNB02oKi-MRNqb1KIhmf-7" value="Settings menu" style="rounded=0;whiteSpace=wrap;html=1;" vertex="1" parent="hNB02oKi-MRNqb1KIhmf-6">
          <mxGeometry width="180" height="40" as="geometry" />
        </mxCell>
        <mxCell id="hNB02oKi-MRNqb1KIhmf-8" value="STEPS" style="rounded=0;whiteSpace=wrap;html=1;" vertex="1" parent="hNB02oKi-MRNqb1KIhmf-6">
          <mxGeometry y="40" width="60" height="30" as="geometry" />
        </mxCell>
        <mxCell id="hNB02oKi-MRNqb1KIhmf-9" value="PHOTO" style="rounded=0;whiteSpace=wrap;html=1;" vertex="1" parent="hNB02oKi-MRNqb1KIhmf-6">
          <mxGeometry x="60" y="40" width="60" height="30" as="geometry" />
        </mxCell>
        <mxCell id="hNB02oKi-MRNqb1KIhmf-10" value="BACK" style="rounded=0;whiteSpace=wrap;html=1;" vertex="1" parent="hNB02oKi-MRNqb1KIhmf-6">
          <mxGeometry x="120" y="40" width="60" height="30" as="geometry" />
        </mxCell>
        <mxCell id="hNB02oKi-MRNqb1KIhmf-11" style="edgeStyle=orthogonalEdgeStyle;rounded=0;orthogonalLoop=1;jettySize=auto;html=1;entryX=0.5;entryY=0;entryDx=0;entryDy=0;" edge="1" parent="1" source="hNB02oKi-MRNqb1KIhmf-2" target="hNB02oKi-MRNqb1KIhmf-7">
          <mxGeometry relative="1" as="geometry" />
        </mxCell>
        <mxCell id="hNB02oKi-MRNqb1KIhmf-13" value="" style="group" vertex="1" connectable="0" parent="1">
          <mxGeometry x="100" y="330" width="180" height="70" as="geometry" />
        </mxCell>
        <mxCell id="hNB02oKi-MRNqb1KIhmf-14" value="Steps menu" style="rounded=0;whiteSpace=wrap;html=1;" vertex="1" parent="hNB02oKi-MRNqb1KIhmf-13">
          <mxGeometry width="180" height="40" as="geometry" />
        </mxCell>
        <mxCell id="hNB02oKi-MRNqb1KIhmf-15" value="LESS" style="rounded=0;whiteSpace=wrap;html=1;" vertex="1" parent="hNB02oKi-MRNqb1KIhmf-13">
          <mxGeometry y="40" width="60" height="30" as="geometry" />
        </mxCell>
        <mxCell id="hNB02oKi-MRNqb1KIhmf-16" value="MORE" style="rounded=0;whiteSpace=wrap;html=1;" vertex="1" parent="hNB02oKi-MRNqb1KIhmf-13">
          <mxGeometry x="60" y="40" width="60" height="30" as="geometry" />
        </mxCell>
        <mxCell id="hNB02oKi-MRNqb1KIhmf-17" value="BACK" style="rounded=0;whiteSpace=wrap;html=1;" vertex="1" parent="hNB02oKi-MRNqb1KIhmf-13">
          <mxGeometry x="120" y="40" width="60" height="30" as="geometry" />
        </mxCell>
        <mxCell id="hNB02oKi-MRNqb1KIhmf-18" style="edgeStyle=orthogonalEdgeStyle;rounded=0;orthogonalLoop=1;jettySize=auto;html=1;" edge="1" parent="1" source="hNB02oKi-MRNqb1KIhmf-8" target="hNB02oKi-MRNqb1KIhmf-14">
          <mxGeometry relative="1" as="geometry" />
        </mxCell>
        <mxCell id="hNB02oKi-MRNqb1KIhmf-19" value="" style="group" vertex="1" connectable="0" parent="1">
          <mxGeometry x="330" y="330" width="180" height="70" as="geometry" />
        </mxCell>
        <mxCell id="hNB02oKi-MRNqb1KIhmf-20" value="Photo menu" style="rounded=0;whiteSpace=wrap;html=1;" vertex="1" parent="hNB02oKi-MRNqb1KIhmf-19">
          <mxGeometry width="180" height="40" as="geometry" />
        </mxCell>
        <mxCell id="hNB02oKi-MRNqb1KIhmf-21" value="PHOTO" style="rounded=0;whiteSpace=wrap;html=1;" vertex="1" parent="hNB02oKi-MRNqb1KIhmf-19">
          <mxGeometry y="40" width="60" height="30" as="geometry" />
        </mxCell>
        <mxCell id="hNB02oKi-MRNqb1KIhmf-22" value="ANGLE" style="rounded=0;whiteSpace=wrap;html=1;" vertex="1" parent="hNB02oKi-MRNqb1KIhmf-19">
          <mxGeometry x="60" y="40" width="60" height="30" as="geometry" />
        </mxCell>
        <mxCell id="hNB02oKi-MRNqb1KIhmf-23" value="BACK" style="rounded=0;whiteSpace=wrap;html=1;" vertex="1" parent="hNB02oKi-MRNqb1KIhmf-19">
          <mxGeometry x="120" y="40" width="60" height="30" as="geometry" />
        </mxCell>
        <mxCell id="hNB02oKi-MRNqb1KIhmf-25" style="edgeStyle=orthogonalEdgeStyle;rounded=0;orthogonalLoop=1;jettySize=auto;html=1;exitX=0.5;exitY=1;exitDx=0;exitDy=0;entryX=1;entryY=0.5;entryDx=0;entryDy=0;" edge="1" parent="1" source="hNB02oKi-MRNqb1KIhmf-10" target="lsEL3dnpaxWrX8sRYRty-1">
          <mxGeometry relative="1" as="geometry">
            <Array as="points">
              <mxPoint x="310" y="250" />
              <mxPoint x="380" y="250" />
              <mxPoint x="380" y="60" />
            </Array>
          </mxGeometry>
        </mxCell>
        <mxCell id="hNB02oKi-MRNqb1KIhmf-26" style="edgeStyle=orthogonalEdgeStyle;rounded=0;orthogonalLoop=1;jettySize=auto;html=1;entryX=0.5;entryY=0;entryDx=0;entryDy=0;" edge="1" parent="1" source="hNB02oKi-MRNqb1KIhmf-9" target="hNB02oKi-MRNqb1KIhmf-20">
          <mxGeometry relative="1" as="geometry">
            <Array as="points">
              <mxPoint x="250" y="270" />
              <mxPoint x="420" y="270" />
            </Array>
          </mxGeometry>
        </mxCell>
        <mxCell id="hNB02oKi-MRNqb1KIhmf-27" style="edgeStyle=orthogonalEdgeStyle;rounded=0;orthogonalLoop=1;jettySize=auto;html=1;entryX=0;entryY=0.5;entryDx=0;entryDy=0;" edge="1" parent="1" source="hNB02oKi-MRNqb1KIhmf-17" target="hNB02oKi-MRNqb1KIhmf-7">
          <mxGeometry relative="1" as="geometry">
            <Array as="points">
              <mxPoint x="250" y="420" />
              <mxPoint x="70" y="420" />
              <mxPoint x="70" y="180" />
            </Array>
          </mxGeometry>
        </mxCell>
        <mxCell id="hNB02oKi-MRNqb1KIhmf-28" style="edgeStyle=orthogonalEdgeStyle;rounded=0;orthogonalLoop=1;jettySize=auto;html=1;entryX=1;entryY=0.5;entryDx=0;entryDy=0;exitX=0.5;exitY=1;exitDx=0;exitDy=0;" edge="1" parent="1" source="hNB02oKi-MRNqb1KIhmf-23" target="hNB02oKi-MRNqb1KIhmf-7">
          <mxGeometry relative="1" as="geometry">
            <mxPoint x="440" y="430" as="sourcePoint" />
            <Array as="points">
              <mxPoint x="480" y="420" />
              <mxPoint x="530" y="420" />
              <mxPoint x="530" y="180" />
            </Array>
          </mxGeometry>
        </mxCell>
      </root>
    </mxGraphModel>
  </diagram>
</mxfile>
